#!OML:ASF Y:\EmotionMaleHayes\Project 1\Capture day 1\Session 1\Male1.ASF
:FULLY-SPECIFIED
:DEGREES
1011
root 47.8784 17.119 -0.597167 1153.03 86.0455 1154.66
lowerback 1.03588 2.78303 -9.31089
upperback -0.502009 3.61489 -2.84913
thorax -1.48915 1.90499 2.15189
lowerneck -18.9284 -7.13425 -5.39766
upperneck 17.4668 -8.20257 -0.0952514
head 8.79635 -4.21906 -0.236336
rclavicle 2.44505e-014 6.36111e-015
rhumerus -41.4111 10.0251 -88.7996
rradius 40.1897
rwrist -5.36574
rhand -8.8185 -32.9758
rfingers 7.12502
rthumb 17.1211 -62.2414
lclavicle 2.44505e-014 6.36111e-015
lhumerus -40.7291 -15.4457 90.4998
lradius 35.731
lwrist -2.11228
lhand -11.8493 -20.6811
lfingers 7.12502
lthumb 14.2022 8.81338
rfemur 9.9966 -4.10168 7.70435
rtibia 9.37598
rfoot -19.2647 -4.08435
rtoes -6.10327
lfemur 16.2255 -1.42124 -24.1831
ltibia -1.48259
lfoot -13.328 6.73579
ltoes 8.76244
1012
root 47.8555 17.1215 -0.568796 1152.13 86.0484 1153.67
lowerback 1.15305 2.83441 -9.45714
upperback -0.497392 3.66662 -2.82569
thorax -1.56674 1.93476 2.24729
lowerneck -18.9673 -7.00651 -5.27154
upperneck 17.3283 -8.05181 -0.133762
head 8.74422 -4.14412 -0.246355
rclavicle -1.39398e-014 1.11319e-014
rhumerus -41.1273 10.0684 -88.7802
rradius 40.255
rwrist -5.42813
rhand -8.88706 -32.9935
rfingers 7.12502
rthumb 17.0552 -62.2649
lclavicle -1.39398e-014 1.11319e-014
lhumerus -40.5547 -15.5368 90.3928
lradius 35.5083
lwrist -2.11809
lhand -12.1553 -20.9423
lfingers 7.12502
lthumb 13.9073 8.57266
rfemur 9.74316 -3.26518 8.1686
rtibia 9.33254
rfoot -19.4328 -4.83501
rtoes -5.85811
lfemur 15.8979 -1.30801 -23.8937
ltibia -1.20123
lfoot -13.2554 6.7934
ltoes 6.91065
1013
root 47.859 17.1213 -0.544542 1148.88 86.4551 1150.47
lowerback 1.14693 2.89897 -9.11345
upperback -0.457719 3.75638 -2.67202
thorax -1.52018 1.97145 2.21612
lowerneck -19.0799 -6.99093 -5.25689
upperneck 17.3124 -8.0313 -0.118436
head 8.75784 -4.1313 -0.2443
rclavicle 2.10215e-014 -8.74653e-015
rhumerus -40.9565 10.1482 -88.7408
rradius 40.3418
rwrist -5.58987
rhand -8.92558 -32.8257
rfingers 7.12502
rthumb 17.0181 -62.1002
lclavicle 2.10215e-014 -8.74653e-015
lhumerus -40.5954 -15.6104 90.3562
lradius 35.3895
lwrist -2.30403
lhand -12.4703 -21.3012
lfingers 7.12502
lthumb 13.6038 8.23432
rfemur 9.95086 -2.72165 9.03856
rtibia 8.95442
rfoot -19.3644 -5.42753
rtoes -6.55125
lfemur 16.014 -1.42613 -23.2137
ltibia -1.25382
lfoot -13.2886 6.9047
ltoes 6.95353
1014
root 47.8935 17.1207 -0.537183 1155.69 85.9807 1157.25
lowerback 0.697285 2.80594 -9.66025
upperback -0.336957 3.69734 -2.80516
thorax -1.16058 1.93202 2.40983
lowerneck -19.2342 -6.9954 -5.33919
upperneck 17.3856 -8.00035 -0.133429
head 8.81243 -4.12282 -0.239439
rclavicle 2.10712e-014 1.51076e-014
rhumerus -40.8073 10.3588 -88.7289
rradius 40.4352
rwrist -6.1255
rhand -9.22241 -32.6619
rfingers 7.12502
rthumb 16.7323 -61.9608
lclavicle 2.10712e-014 1.51076e-014
lhumerus -40.6502 -15.5818 90.3248
lradius 35.3698
lwrist -2.35707
lhand -12.423 -21.3016
lfingers 7.12502
lthumb 13.6494 8.2309
rfemur 10.5174 -3.56376 8.02814
rtibia 8.38794
rfoot -19.1032 -4.70924
rtoes -5.96816
lfemur 16.1555 -1.35033 -23.9717
ltibia -1.36393
lfoot -13.1494 6.64648
ltoes 6.87777
1015
root 47.9014 17.1202 -0.522097 1157.27 85.8 1158.82
lowerback 0.994047 2.85698 -9.80507
upperback -0.595927 3.70828 -2.91267
thorax -1.60102 1.96462 2.35064
lowerneck -19.128 -7.00965 -5.38812
upperneck 17.6558 -8.01294 -0.130999
head 8.88977 -4.13191 -0.234893
rclavicle -2.5842e-015 -3.57812e-014
rhumerus -41.1874 10.296 -88.8621
rradius 40.5765
rwrist -6.51147
rhand -9.3846 -32.5926
rfingers 7.12502
rthumb 16.5762 -61.9046
lclavicle -2.5842e-015 -3.57812e-014
lhumerus -41.1818 -15.6825 90.3058
lradius 35.4597
lwrist -2.36221
lhand -12.1236 -21.065
lfingers 7.12502
lthumb 13.9379 8.44787
rfemur 10.4568 -3.8369 7.71662
rtibia 8.60966
rfoot -19.2291 -4.5036
rtoes -5.85324
lfemur 16.1912 -1.4105 -24.2014
ltibia -1.38793
lfoot -13.0403 6.77356
ltoes 6.17834
